<?xml version="1.0" encoding="UTF-8"?>
<svg width="154px" height="13px" viewBox="0 0 154 13" version="1.1" xmlns="http://www.w3.org/2000/svg" xmlns:xlink="http://www.w3.org/1999/xlink">
    <!-- Generator: Sketch Beta 42 (36644) - http://www.bohemiancoding.com/sketch -->
    <title>Footer</title>
    <desc>Created with Sketch Beta.</desc>
    <defs></defs>
    <g id="Page-2" stroke="none" stroke-width="1" fill="none" fill-rule="evenodd">
        <g id="Desktop-HD" transform="translate(-644.000000, -997.000000)" fill="#000000">
            <g id="Footer" transform="translate(644.000000, 996.000000)">
                <path d="M108.273,11 L111.101,3.398 L109.631,3.398 L108.161,7.654 L107.615,9.306 L107.055,7.654 L105.459,3.398 L103.807,3.398 L106.845,11 L108.273,11 Z M113.943,11 L113.943,3.398 L112.417,3.398 L112.417,11 L113.943,11 Z M121.881,5.568 C121.783,4.042 120.677,3.202 118.773,3.202 C117.135,3.202 115.917,4.112 115.917,5.442 C115.917,7.206 117.429,7.5 118.717,7.738 C119.627,7.92 120.509,8.186 120.509,8.998 C120.509,9.768 119.781,10.132 119.025,10.132 C118.157,10.132 117.485,9.712 117.387,8.732 L115.833,8.732 C115.903,10.37 117.121,11.21 119.025,11.21 C120.607,11.21 121.965,10.244 121.965,8.844 C121.965,7.094 120.425,6.758 119.123,6.506 C118.227,6.324 117.373,6.128 117.373,5.316 C117.373,4.63 118.031,4.28 118.773,4.28 C119.641,4.28 120.229,4.7 120.327,5.568 L121.881,5.568 Z M125.171,11 L125.171,3.398 L123.645,3.398 L123.645,11 L125.171,11 Z M130.743,10.104 C131.989,10.104 132.857,9.068 132.857,7.206 C132.857,5.344 131.989,4.308 130.743,4.308 C129.483,4.308 128.615,5.344 128.615,7.206 C128.615,9.068 129.483,10.104 130.743,10.104 Z M130.743,11.21 C128.517,11.21 127.005,9.614 127.005,7.206 C127.005,4.798 128.517,3.202 130.743,3.202 C132.955,3.202 134.481,4.798 134.481,7.206 C134.481,9.614 132.955,11.21 130.743,11.21 Z M142.741,11 L142.741,3.398 L141.355,3.398 L141.355,7.36 L141.397,8.914 L137.813,3.398 L136.315,3.398 L136.315,11 L137.687,11 L137.687,7.038 L137.673,5.498 L141.243,11 L142.741,11 Z M153.619,13.114 L150.595,13.114 L149.279,11.196 C149.223,11.196 149.181,11.21 149.125,11.21 C146.255,11.21 144.477,9.194 144.477,6.1 C144.477,3.006 146.255,0.99 149.125,0.99 C151.995,0.99 153.773,3.006 153.773,6.1 C153.773,8.13 153.003,9.684 151.673,10.524 L153.619,13.114 Z M147.207,6.1 C147.207,7.906 147.669,9.264 149.125,9.264 C150.581,9.264 151.043,7.906 151.043,6.1 C151.043,4.294 150.581,2.936 149.125,2.936 C147.669,2.936 147.207,4.294 147.207,6.1 Z" id="VisionQ"></path>
                <path d="M6.082,8.216 C5.926,9.536 5.302,10.112 4.27,10.112 C2.938,10.112 2.122,9.02 2.122,6.8 C2.122,4.58 3.046,3.488 4.27,3.488 C5.302,3.488 5.926,4.064 6.082,5.384 L7.594,5.384 C7.366,3.356 6.082,2.42 4.27,2.42 C2.074,2.42 0.634,4.148 0.634,6.8 C0.634,9.452 1.882,11.18 4.27,11.18 C6.082,11.18 7.366,10.244 7.594,8.216 L6.082,8.216 Z M11.65,10.268 C12.61,10.268 13.246,9.536 13.246,7.892 C13.246,6.248 12.61,5.504 11.65,5.504 C10.69,5.504 10.054,6.248 10.054,7.892 C10.054,9.536 10.69,10.268 11.65,10.268 Z M11.65,11.18 C9.766,11.18 8.686,9.86 8.686,7.892 C8.686,5.924 9.766,4.592 11.65,4.592 C13.534,4.592 14.626,5.924 14.626,7.892 C14.626,9.86 13.534,11.18 11.65,11.18 Z M17.398,13.496 L16.078,13.496 L16.078,4.772 L17.398,4.772 L17.398,5.42 C17.938,4.88 18.55,4.592 19.318,4.592 C20.626,4.592 21.694,5.708 21.694,7.892 C21.694,10.064 20.386,11.18 19.006,11.18 C18.346,11.18 17.77,10.892 17.398,10.448 L17.398,13.496 Z M18.862,5.6 C18.298,5.6 17.758,5.852 17.398,6.212 L17.398,9.608 C17.758,9.968 18.202,10.172 18.766,10.172 C19.558,10.172 20.326,9.488 20.326,7.892 C20.326,6.284 19.666,5.6 18.862,5.6 Z M24.754,13.496 L27.958,4.772 L26.71,4.772 L25.702,7.628 L25.15,9.38 L24.586,7.628 L23.578,4.772 L22.126,4.772 L24.502,10.952 L23.53,13.496 L24.754,13.496 Z M30.25,11 L30.25,6.836 C30.562,6.308 31.198,5.804 31.906,5.804 C32.266,5.804 32.47,5.876 32.758,5.996 L32.758,4.88 C32.566,4.7 32.338,4.592 32.014,4.592 C31.366,4.592 30.718,5.06 30.25,5.876 L30.25,4.772 L28.93,4.772 L28.93,11 L30.25,11 Z M35.122,11 L35.122,4.772 L33.802,4.772 L33.802,11 L35.122,11 Z M35.29,3.056 C35.29,2.6 34.93,2.228 34.462,2.228 C33.994,2.228 33.634,2.6 33.634,3.056 C33.634,3.512 33.994,3.872 34.462,3.872 C34.93,3.872 35.29,3.512 35.29,3.056 Z M40.714,11.12 L40.714,10.292 C40.174,10.832 39.574,11.132 38.806,11.132 C37.486,11.132 36.418,10.04 36.418,7.856 C36.418,5.672 37.738,4.592 39.106,4.592 C39.778,4.592 40.342,4.88 40.714,5.324 L40.714,4.772 L42.034,4.772 L42.034,10.964 C42.034,12.848 40.666,13.676 39.262,13.676 C37.546,13.676 36.586,12.956 36.55,11.612 L37.906,11.612 C37.942,12.44 38.386,12.764 39.262,12.764 C40.018,12.764 40.714,12.44 40.714,11.12 Z M40.714,9.5 L40.714,6.164 C40.354,5.804 39.922,5.6 39.358,5.6 C38.554,5.6 37.786,6.248 37.786,7.856 C37.786,9.464 38.446,10.112 39.25,10.112 C39.814,10.112 40.354,9.86 40.714,9.5 Z M45.046,11 L45.046,6.38 C45.418,6.008 46.078,5.66 46.654,5.66 C47.422,5.66 47.818,6.044 47.818,6.92 L47.818,11 L49.138,11 L49.138,6.644 C49.138,5.132 48.238,4.592 47.218,4.592 C46.414,4.592 45.622,5 45.046,5.588 L45.046,2.072 L43.726,2.072 L43.726,11 L45.046,11 Z M54.082,5.696 L54.082,4.772 L52.39,4.772 L52.39,3.08 L51.07,3.08 L51.07,4.772 L50.026,4.772 L50.026,5.696 L51.07,5.696 L51.07,9.452 C51.07,10.652 51.814,11.18 52.774,11.18 C53.146,11.18 53.794,11.072 54.166,10.904 L54.166,10.052 C53.83,10.148 53.446,10.232 53.206,10.232 C52.654,10.232 52.39,9.896 52.39,9.2 L52.39,5.696 L54.082,5.696 Z M64.09,7.64 L65.134,7.64 C64.99,8.84 64.174,9.38 63.106,9.38 C61.69,9.38 60.922,8.372 60.922,6.8 C60.922,5.24 61.81,4.232 63.106,4.232 C64.174,4.232 64.99,4.76 65.134,5.972 L64.09,5.972 C63.994,5.288 63.706,4.976 63.106,4.976 C62.41,4.976 61.942,5.612 61.942,6.8 C61.942,7.988 62.35,8.636 63.106,8.636 C63.706,8.636 63.994,8.324 64.09,7.64 Z M67.522,6.8 C67.522,9.212 65.65,11.18 63.142,11.18 C60.634,11.18 58.762,9.212 58.762,6.8 C58.762,4.388 60.634,2.42 63.142,2.42 C65.65,2.42 67.522,4.388 67.522,6.8 Z M63.142,10.364 C65.11,10.364 66.622,8.768 66.622,6.8 C66.622,4.832 65.11,3.236 63.142,3.236 C61.174,3.236 59.662,4.832 59.662,6.8 C59.662,8.768 61.174,10.364 63.142,10.364 Z M74.23,9.932 C76.57,7.76 77.878,6.356 77.878,4.832 C77.878,3.26 76.822,2.42 75.202,2.42 C73.462,2.42 72.37,3.368 72.286,5.156 L73.738,5.156 C73.834,3.932 74.386,3.464 75.202,3.464 C75.946,3.464 76.45,3.896 76.45,4.832 C76.45,6.284 74.902,7.652 72.49,9.932 L72.49,11 L77.998,11 L77.998,9.932 L74.23,9.932 Z M82.162,10.112 C83.218,10.112 83.926,9.02 83.926,6.8 C83.926,4.58 83.218,3.488 82.162,3.488 C81.106,3.488 80.386,4.58 80.386,6.8 C80.386,9.02 81.106,10.112 82.162,10.112 Z M82.162,11.18 C80.146,11.18 78.922,9.452 78.922,6.8 C78.922,4.148 80.146,2.42 82.162,2.42 C84.178,2.42 85.39,4.148 85.39,6.8 C85.39,9.452 84.178,11.18 82.162,11.18 Z M89.77,11 L89.77,2.6 L88.378,2.6 L86.398,3.68 L86.398,4.88 L88.378,3.824 L88.378,11 L89.77,11 Z M97.138,4.472 L95.686,4.472 C95.554,3.752 95.206,3.464 94.534,3.464 C93.514,3.464 92.926,4.352 92.818,6.536 C93.298,5.972 94.054,5.552 94.858,5.552 C96.37,5.552 97.366,6.5 97.366,8.348 C97.366,10.1 96.022,11.18 94.426,11.18 C92.41,11.18 91.342,9.692 91.342,7.244 C91.342,4.112 92.602,2.42 94.534,2.42 C96.094,2.42 97.006,3.188 97.138,4.472 Z M94.51,6.608 C93.814,6.608 93.178,6.956 92.806,7.436 C92.842,9.32 93.394,10.136 94.426,10.136 C95.362,10.136 95.938,9.428 95.938,8.348 C95.938,7.292 95.494,6.608 94.51,6.608 Z" id="Copyright-©-2016"></path>
            </g>
        </g>
    </g>
</svg>